<svg width="63" height="63" viewBox="0 0 63 63" fill="none" xmlns="http://www.w3.org/2000/svg">
<path d="M26.5781 0H36.4219C38.0584 0 39.375 1.3166 39.375 2.95312V23.625H50.1662C52.3564 23.625 53.4516 26.2705 51.9012 27.8209L33.1857 46.5486C32.2629 47.4715 30.7494 47.4715 29.8266 46.5486L11.0865 27.8209C9.53613 26.2705 10.6312 23.625 12.8215 23.625H23.625V2.95312C23.625 1.3166 24.9416 0 26.5781 0ZM63 46.2656V60.0469C63 61.6834 61.6834 63 60.0469 63H2.95312C1.3166 63 0 61.6834 0 60.0469V46.2656C0 44.6291 1.3166 43.3125 2.95312 43.3125H21.0041L27.0334 49.3418C29.5066 51.815 33.4934 51.815 35.9666 49.3418L41.9959 43.3125H60.0469C61.6834 43.3125 63 44.6291 63 46.2656ZM47.7422 57.0938C47.7422 55.7402 46.6348 54.6328 45.2812 54.6328C43.9277 54.6328 42.8203 55.7402 42.8203 57.0938C42.8203 58.4473 43.9277 59.5547 45.2812 59.5547C46.6348 59.5547 47.7422 58.4473 47.7422 57.0938ZM55.6172 57.0938C55.6172 55.7402 54.5098 54.6328 53.1562 54.6328C51.8027 54.6328 50.6953 55.7402 50.6953 57.0938C50.6953 58.4473 51.8027 59.5547 53.1562 59.5547C54.5098 59.5547 55.6172 58.4473 55.6172 57.0938Z" fill="url(#paint0_linear_203_141)"/>
<defs>
<linearGradient id="paint0_linear_203_141" x1="0" y1="63" x2="63" y2="0" gradientUnits="userSpaceOnUse">
<stop stop-color="#F808D3"/>
<stop offset="1" stop-color="#FE056B"/>
</linearGradient>
</defs>
</svg>
